<?xml version="1.0" standalone="no"?>
<!DOCTYPE svg PUBLIC "-//W3C//DTD SVG 20010904//EN"
 "http://www.w3.org/TR/2001/REC-SVG-20010904/DTD/svg10.dtd">
<svg version="1.0" xmlns="http://www.w3.org/2000/svg"
 width="1280.000000pt" height="720.000000pt" viewBox="0 0 1280.000000 720.000000"
 preserveAspectRatio="xMidYMid meet">
<metadata>
Created by potrace 1.16, written by Peter Selinger 2001-2019
</metadata>
<g transform="translate(0.000000,720.000000) scale(0.100000,-0.100000)"
fill="#000000" stroke="none">
<path d="M6135 5375 c-248 -55 -444 -214 -505 -411 -21 -68 -29 -199 -16 -279
l7 -50 -73 -39 c-289 -155 -473 -335 -594 -581 -72 -147 -97 -253 -97 -410 0
-78 5 -143 16 -187 110 -448 516 -784 1087 -900 102 -20 143 -23 360 -23 216
1 257 3 350 23 323 70 579 196 773 381 138 132 217 254 279 432 32 92 33 97
32 264 0 156 -2 177 -27 258 -90 292 -308 544 -623 719 -79 44 -93 56 -89 73
3 11 8 54 11 95 26 309 -189 562 -538 635 -85 18 -271 18 -353 0z m389 -36
c44 -10 111 -35 150 -53 67 -33 176 -111 176 -127 0 -4 -30 13 -67 37 -83 54
-189 99 -285 120 -108 23 -283 21 -388 -5 -101 -25 -248 -95 -308 -146 -60
-52 -66 -35 -6 20 56 52 202 128 289 151 140 36 296 38 439 3z m13 -59 c43
-11 116 -39 162 -63 106 -53 221 -162 266 -252 28 -56 30 -67 30 -177 0 -64
-3 -120 -7 -124 -4 -3 -21 -1 -37 5 -28 12 -29 15 -30 81 -1 113 -53 223 -144
307 -49 44 -97 64 -93 38 1 -5 30 -37 64 -69 34 -32 73 -78 86 -102 40 -72 71
-224 46 -224 -5 0 -33 9 -62 20 -150 58 -427 92 -628 78 -117 -9 -327 -49
-389 -74 -52 -22 -54 -20 -49 49 5 90 50 177 130 253 34 32 63 64 64 69 4 25
-42 7 -86 -32 -91 -82 -150 -206 -150 -315 0 -54 -2 -59 -26 -68 -40 -15 -42
-14 -49 48 -10 85 10 206 42 261 39 66 150 173 224 214 80 45 197 84 286 96
95 13 257 4 350 -19z m-117 -510 c68 -5 167 -19 220 -30 120 -26 330 -97 350
-119 8 -10 49 -37 90 -61 262 -151 463 -353 566 -567 85 -177 111 -411 66
-597 -74 -300 -268 -531 -579 -688 -365 -186 -778 -240 -1193 -157 -217 44
-400 117 -564 226 -415 276 -581 687 -449 1108 87 278 289 505 598 671 39 20
81 48 95 60 60 55 356 137 557 153 54 5 103 9 108 9 6 1 66 -3 135 -8z"/>
<path d="M6170 5216 c-105 -23 -156 -46 -156 -71 l0 -22 66 23 c140 49 329 49
469 0 l68 -24 -1 22 c-3 61 -287 107 -446 72z"/>
<path d="M5989 5138 c-5 -18 -6 -38 -1 -34 7 8 12 36 6 36 -2 0 -4 -1 -5 -2z"/>
</g>
</svg>
