<?xml version="1.0" standalone="no"?>
<!DOCTYPE svg PUBLIC "-//W3C//DTD SVG 20010904//EN"
 "http://www.w3.org/TR/2001/REC-SVG-20010904/DTD/svg10.dtd">
<svg version="1.0" xmlns="http://www.w3.org/2000/svg"
 width="1280.000000pt" height="720.000000pt" viewBox="0 0 1280.000000 720.000000"
 preserveAspectRatio="xMidYMid meet">
<metadata>
Created by potrace 1.16, written by Peter Selinger 2001-2019
</metadata>
<g transform="translate(0.000000,720.000000) scale(0.100000,-0.100000)"
fill="#000000" stroke="none">
<path d="M1777 3750 l-287 -251 0 -79 c0 -58 4 -83 16 -94 14 -15 482 -16
4997 -16 2751 0 4988 4 4996 9 8 5 15 38 18 93 l6 84 -302 252 -301 252 -714
0 c-688 0 -715 -1 -737 -19 -23 -18 -24 -27 -29 -153 l-5 -133 -2941 -3 -2941
-2 -7 52 c-3 29 -6 90 -6 136 0 135 83 122 -758 122 l-718 0 -287 -250z m1671
203 c-3 -10 -37 -64 -76 -119 -39 -56 -69 -110 -68 -120 4 -24 36 -31 153 -33
50 0 95 -5 98 -11 8 -14 5862 -14 5870 0 3 6 48 10 98 10 51 0 108 3 128 6 49
8 44 22 -44 149 -39 55 -72 108 -75 118 -4 16 34 17 690 17 l694 0 265 -221
c145 -122 265 -225 267 -230 2 -5 -2137 -9 -4948 -9 -3694 0 -4951 3 -4948 11
2 7 116 110 253 230 l250 218 699 1 c660 0 698 -1 694 -17z m67 -150 l0 -88
-62 -3 c-46 -2 -63 1 -63 10 0 16 111 178 119 174 3 -3 6 -44 6 -93z m6020 11
c30 -43 55 -84 55 -91 0 -9 -18 -13 -60 -13 l-60 0 0 97 c0 53 2 94 5 91 3 -3
30 -41 60 -84z m1953 -406 l-3 -63 -4980 0 -4980 0 -3 63 -3 62 4986 0 4986 0
-3 -62z"/>
</g>
</svg>
