<?xml version="1.0" encoding="utf-8"?>
<!-- Generator: Adobe Illustrator 25.0.0, SVG Export Plug-In . SVG Version: 6.00 Build 0)  -->
<svg version="1.1" id="Ebene_1" xmlns="http://www.w3.org/2000/svg" xmlns:xlink="http://www.w3.org/1999/xlink" x="0px" y="0px"
	 viewBox="0 0 330.6 119.1" style="enable-background:new 0 0 330.6 119.1;" xml:space="preserve">
<style type="text/css">
	.st0{fill:#1D1D1B;}
	.st1{clip-path:url(#SVGID_2_);fill-rule:evenodd;clip-rule:evenodd;fill:#FFFFFF;}
	.st2{clip-path:url(#SVGID_2_);fill:#FFFFFF;}
	.st3{clip-path:url(#SVGID_4_);fill:#9D9D9C;}
	.st4{clip-path:url(#SVGID_4_);fill:#EC671A;}
</style>
<rect x="-0.2" y="-0.8" class="st0" width="331.3" height="74.7"/>
<g>
	<defs>
		<rect id="SVGID_1_" x="-19.7" y="-0.8" width="340.3" height="85.4"/>
	</defs>
	<clipPath id="SVGID_2_">
		<use xlink:href="#SVGID_1_"  style="overflow:visible;"/>
	</clipPath>
	<path class="st1" d="M278.5,61.6h14.6V46.7c0-3-0.4-6-0.9-9.2h0.4l13.4,24.1h14.6V15.7h-14.6v13.8c0,3.9,0.7,7.9,1.3,11.7h-0.4
		l-13.7-25.5h-14.6V61.6"/>
	<path class="st1" d="M230.4,61.6H245V46.7c0-3-0.4-6-1-9.2h0.4l13.4,24.1h14.6V15.7h-14.6v13.8c0,3.9,0.7,7.9,1.3,11.7h-0.4
		L245,15.7h-14.6V61.6"/>
	<path class="st2" d="M123.5,61.6h14.8l1.8-19.6c0.2-1.8,0.3-3.7,0.4-5.5h0.5c0.1,1.9,0.5,3.8,0.9,5.7l5.5,19.4h8.9l6.1-20.6
		c0.4-1.5,0.7-3,1-4.6h0.3l2.1,25.2h14.8l-6.9-45.9H158l-4.7,18c-0.5,1.9-0.8,4.1-1.1,6.1h-0.4L146,15.7h-15.7L123.5,61.6"/>
	<path class="st1" d="M14.1,62.2h14.6v-15c0-3.1-0.4-6.1-0.9-9.2h0.4l13.4,24.2h14.6V16H41.6v13.8c0,3.9,0.7,7.9,1.3,11.8h-0.4
		L28.8,16H14.1V62.2"/>
	<rect x="64.1" y="15.7" class="st2" width="14.9" height="46"/>
	<path class="st2" d="M117.1,33.1h-15.3c1.9-4.2,5.9-5.3,9.6-5.3h5.7V15.7h-7.5c-11.2,0-24.2,7.4-24.2,23c0,15.6,13,23,24.2,23h7.5
		V49.4h-5.7c-3.7,0-7.6-1-9.6-5.2h15.3V33.1"/>
	<path class="st2" d="M202,47.6h6.8v14h14.9V32.2c0-23-36.5-22.9-36.5,0v29.4H202V31.9c0-5.1,6.8-5,6.8,0v4.1H202V47.6"/>
</g>
<g>
	<defs>
		<rect id="SVGID_3_" x="143.8" y="77.5" width="176.9" height="34.3"/>
	</defs>
	<clipPath id="SVGID_4_">
		<use xlink:href="#SVGID_3_"  style="overflow:visible;"/>
	</clipPath>
	<path class="st3" d="M185.6,86.4c1.5,0,2.9,0.3,4.2,1c1.3,0.7,2.5,1.6,3.4,2.7c2-2.5,4.6-3.7,8-3.7c2.6,0,4.9,0.9,6.8,2.7
		c1.9,1.8,2.9,3.9,2.9,6.5v15.8H207V97.3c0-1.8-0.5-3.3-1.6-4.6c-1.1-1.3-2.5-1.9-4.1-1.9c-1.7,0-3.1,0.7-4.2,2
		c-1.2,1.3-1.7,2.8-1.7,4.5v14.1h-3.9V97.1c0-1.8-0.5-3.3-1.6-4.6c-1.1-1.3-2.5-1.9-4.1-1.9c-1.7,0-3.1,0.6-4.4,1.8
		c-1.2,1.2-1.9,2.6-1.9,4.2v14.9h-3.8V95.1c0-2.5,1-4.6,3-6.2C180.5,87.2,182.9,86.4,185.6,86.4"/>
	<path class="st3" d="M216,99.1c0-3.4,1.2-6.3,3.7-8.7c2.5-2.4,5.5-3.6,9-3.6c3.4,0,6.3,1.2,8.7,3.7c2.4,2.5,3.6,5.4,3.6,8.9
		c0,3.4-1.2,6.3-3.6,8.7c-2.4,2.4-5.3,3.6-8.7,3.6c-3.5,0-6.5-1.2-9-3.7C217.2,105.5,216,102.5,216,99.1 M228.6,90.7
		c-2.3,0-4.3,0.8-6,2.5c-1.7,1.6-2.5,3.6-2.5,6c0,2.4,0.8,4.4,2.5,6.1c1.7,1.7,3.7,2.5,6.1,2.5c2.4,0,4.4-0.9,6-2.6
		c1.6-1.7,2.5-3.8,2.5-6.2c0-2.3-0.8-4.3-2.5-5.9C232.9,91.5,231,90.7,228.6,90.7"/>
	<path class="st3" d="M249.8,79.5V83c0,0.6,0,1.2,0,1.8c0,0.7,0.1,1.1,0.2,1.2c0.1,0.1,0.4,0.2,0.8,0.2c0.4,0,0.9,0,1.3,0h3.6v4.2
		h-3.5c-0.5,0-1.1,0-1.6,0s-0.8,0.2-0.9,0.5c0,0.1-0.1,0.4-0.1,0.9v1.2v1.3v0.7v3.6c0,1.6,0.2,2.8,0.5,3.7c0.3,0.9,0.7,1.6,1.2,2.3
		c0.3,0.4,1,1,2.1,1.6c1.1,0.6,2,1,2.7,1v4.2c-1.9-0.2-3.5-0.7-5-1.4c-1.5-0.8-2.7-1.9-3.8-3.4c-0.8-1.1-1.3-2.3-1.6-3.4
		c-0.3-1.2-0.4-2.3-0.4-3.5v-1.7v-2.7V95v-0.8v-1c0-1.2-0.1-1.9-0.2-2.2c-0.1-0.3-0.6-0.5-1.4-0.5h-1v-4.2h0.7c1,0,1.5-0.1,1.6-0.3
		c0.1-0.1,0.1-0.3,0.2-0.8c0-0.4,0.1-0.8,0.1-1.2v-1.2v-3.4H249.8z"/>
	<path class="st3" d="M259.5,80.3c0-0.8,0.3-1.4,0.8-2c0.6-0.6,1.2-0.8,2.1-0.8c0.8,0,1.4,0.3,2,0.8c0.6,0.6,0.8,1.2,0.8,2
		c0,0.8-0.3,1.4-0.8,2c-0.6,0.6-1.2,0.8-2,0.8c-0.8,0-1.5-0.3-2.1-0.8C259.8,81.8,259.5,81.2,259.5,80.3 M260.4,86.4h4.1v25h-4.1
		V86.4z"/>
	<path class="st3" d="M270.1,99.1c0-3.4,1.2-6.3,3.7-8.7c2.5-2.4,5.5-3.6,9-3.6c3.4,0,6.3,1.2,8.7,3.7c2.4,2.5,3.6,5.4,3.6,8.9
		c0,3.4-1.2,6.3-3.6,8.7s-5.3,3.6-8.7,3.6c-3.5,0-6.5-1.2-9-3.7C271.4,105.5,270.1,102.5,270.1,99.1 M282.8,90.7
		c-2.3,0-4.3,0.8-6,2.5c-1.7,1.6-2.5,3.6-2.5,6c0,2.4,0.8,4.4,2.5,6.1c1.7,1.7,3.7,2.5,6.1,2.5c2.4,0,4.4-0.9,6-2.6
		c1.6-1.7,2.5-3.8,2.5-6.2c0-2.3-0.8-4.3-2.5-5.9C287.1,91.5,285.1,90.7,282.8,90.7"/>
	<path class="st3" d="M303.8,96.6v14.7H300V95.2c0-3,1.1-5.3,3.2-6.7c1.9-1.3,4.3-2,7.2-2c2.9,0,5.3,0.7,7.1,2.1
		c2.1,1.6,3.2,3.8,3.2,6.6v16.1h-4.1V97.1c0-2.3-0.6-3.9-1.7-4.9c-1.1-1-2.6-1.5-4.5-1.5c-1.8,0-3.4,0.5-4.6,1.5
		C304.4,93.2,303.8,94.7,303.8,96.6"/>
	<path class="st3" d="M231.5,119.2c0,0,21.2,17.7,42.6-5.2c3.9-4.2,3.9,1.6,3.9,1.6s-19,24.4-47.6,4.8
		C228.9,119.4,231.5,119.2,231.5,119.2"/>
	<path class="st4" d="M170,94.8l-16.8,8.1c-0.8,0.4-1.3,0.7-1.7,0.9c-0.3,0.2-0.4,0.6-0.3,1c0.3,1.2,1.6,2.1,3.9,2.7
		c2.2,0.6,4.2,0.4,6-0.4c1.1-0.5,2.1-1.3,3.1-2.4c0.6-0.7,1.3-1.7,1.9-2.8l3.7,1.6c-0.8,1.7-1.7,3.2-2.8,4.4c-1.1,1.2-2.5,2.1-4.2,3
		c-3.2,1.5-6.5,1.7-9.9,0.4c-3.4-1.3-5.8-3.5-7.4-6.8c-1.5-3.1-1.6-6.4-0.4-9.7c1.2-3.3,3.4-5.8,6.6-7.3c3.3-1.6,6.7-1.7,10.2-0.5
		c3.5,1.2,6,3.4,7.6,6.7C169.7,94.1,169.9,94.6,170,94.8 M163.5,92.7c-1.1-1.3-2.6-2.2-4.4-2.5c-1.8-0.3-3.6-0.1-5.3,0.8
		c-1.7,0.8-3.1,2.2-4.1,4.2c-1,2-1.1,3.5-0.4,4.7c0.1,0.2,0.3,0.2,0.6,0.1c0.3-0.1,0.6-0.2,1-0.3c0.3-0.2,0.5-0.3,0.7-0.3l9.7-4.7
		c0.4-0.2,0.7-0.3,0.9-0.4c0.6-0.3,1-0.5,1.3-0.8C163.7,93.2,163.7,92.9,163.5,92.7"/>
</g>
</svg>
