<?xml version="1.0" standalone="no"?>
<!DOCTYPE svg PUBLIC "-//W3C//DTD SVG 20010904//EN"
 "http://www.w3.org/TR/2001/REC-SVG-20010904/DTD/svg10.dtd">
<svg version="1.0" xmlns="http://www.w3.org/2000/svg"
 width="1280.000000pt" height="720.000000pt" viewBox="0 0 1280.000000 720.000000"
 preserveAspectRatio="xMidYMid meet">
<metadata>
Created by potrace 1.16, written by Peter Selinger 2001-2019
</metadata>
<g transform="translate(0.000000,720.000000) scale(0.100000,-0.100000)"
fill="#000000" stroke="none">
<path d="M710 3575 l-195 -144 0 -48 0 -48 5831 -3 5832 -2 5 42 c3 31 0 48
-12 60 -9 9 -97 78 -195 152 l-179 136 -406 0 c-223 0 -411 -4 -418 -8 -6 -4
-15 -45 -20 -92 l-8 -85 -4595 0 -4595 0 -6 84 c-4 54 -11 86 -20 92 -8 5
-196 9 -419 9 l-405 -1 -195 -144z m950 109 c0 -4 -30 -35 -67 -70 -43 -41
-64 -67 -58 -73 6 -5 57 -12 115 -16 132 -9 9257 -9 9400 0 58 3 109 11 114
16 6 6 5 9 -3 9 -7 0 -10 4 -6 9 3 5 -22 33 -55 63 -33 29 -60 56 -60 60 0 5
170 8 377 8 l377 0 153 -116 c84 -63 153 -119 153 -125 0 -5 -2187 -9 -5760
-9 -3168 0 -5760 3 -5760 8 0 4 71 60 158 124 l157 117 383 0 c210 1 382 -2
382 -5z m60 -79 l0 -45 -57 0 -58 1 50 44 c27 25 53 45 57 45 5 0 8 -20 8 -45z
m9325 0 l50 -44 -57 -1 -58 0 0 45 c0 25 3 45 8 45 4 0 30 -20 57 -45z m1115
-209 c0 -2 -3 -11 -6 -20 -6 -15 -527 -16 -5810 -16 -5797 0 -5804 0 -5804 20
0 20 7 20 5810 20 3196 0 5810 -2 5810 -4z"/>
</g>
</svg>
